<svg width="37" height="37" viewBox="0 0 37 37" fill="none" xmlns="http://www.w3.org/2000/svg">
<g clip-path="url(#clip0_253619_777)">
<path d="M10.4829 11.0427C11.0725 11.5421 11.8171 11.8215 12.5897 11.8333C13.751 11.8319 14.778 11.1353 15.4956 9.95612C16.2143 8.77518 16.587 7.15513 16.4236 5.46078L16.4225 5.44897L16.4219 5.43711C16.3838 4.65469 16.1913 3.88753 15.8555 3.17981C15.5212 2.47522 15.0514 1.8434 14.473 1.32039C14.1039 1.01602 13.6775 0.78857 13.2191 0.65145C12.7574 0.513367 12.2726 0.469723 11.7937 0.523123L10.4829 11.0427ZM10.4829 11.0427C9.16212 9.82837 8.3621 8.1501 8.25053 6.35912L8.24999 6.35041L8.24914 6.34172C7.89473 2.70421 9.86108 0.73892 11.7937 0.523129L10.4829 11.0427ZM0.545724 15.6173L0.545241 15.6068L0.544314 15.5963C0.219171 11.9103 2.02243 9.9818 3.69897 9.77271C4.12386 9.72451 4.55416 9.76945 4.95994 9.90441C5.3633 10.0386 5.73278 10.2585 6.04303 10.5489C7.12429 11.6585 7.75324 13.1314 7.8068 14.6801L7.80724 14.693L7.80836 14.7059C7.95511 16.4019 7.57707 18.0303 6.90411 19.2198C6.22379 20.4224 5.30717 21.0806 4.40402 21.0833C3.71444 21.0661 3.05621 20.7918 2.55853 20.3143C1.34151 19.0438 0.626316 17.375 0.545724 15.6173ZM20.584 5.45673L20.5852 5.44463L20.5858 5.43248C20.6239 4.65006 20.8164 3.88291 21.1522 3.17518C21.4864 2.47077 21.956 1.83909 22.5343 1.31615C22.903 1.01369 23.3283 0.787678 23.7853 0.651322C24.2457 0.513979 24.7289 0.470392 25.2064 0.52314C27.139 0.738983 29.1053 2.70427 28.7509 6.34172L28.75 6.3504L28.7495 6.35911C28.6378 8.15044 27.8379 9.8291 26.5173 11.0441C25.9272 11.5426 25.1827 11.8215 24.4102 11.8333C23.2392 11.8319 22.2135 11.1347 21.5002 9.95651C20.7853 8.77568 20.4183 7.1545 20.584 5.45673ZM28.9232 14.7036L28.9244 14.6905L28.9249 14.6774C28.9847 13.1207 29.635 11.6453 30.7434 10.551C31.071 10.2558 31.4575 10.0333 31.8774 9.89818C32.3 9.7622 32.7467 9.71788 33.1878 9.76818C34.9408 9.97917 36.7946 11.9192 36.462 15.5905L36.4611 15.6001L36.4606 15.6098C36.3692 17.3785 35.6266 19.0506 34.376 20.3043C33.8507 20.7896 33.1663 21.0666 32.4513 21.0833C31.2287 21.0813 30.2894 20.3914 29.6691 19.2299C29.0408 18.0535 28.7662 16.4254 28.9232 14.7036ZM24.6667 36.5V36.4999L24.6568 36.5001C23.4271 36.5243 22.2127 36.224 21.1359 35.6296L21.1359 35.6295L21.1273 35.6249C20.3173 35.1982 19.4155 34.9752 18.5 34.9752C17.5845 34.9752 16.6827 35.1982 15.8727 35.6249L15.8727 35.6248L15.8615 35.631C13.6838 36.8503 11.3655 36.7736 9.61503 35.675C7.86841 34.5789 6.60913 32.4143 6.66658 29.3009L6.66667 29.3009V29.2917C6.66667 25.8763 8.33144 22.5241 10.679 20.0156C13.0355 17.4976 15.996 15.9167 18.5 15.9167C21.004 15.9167 23.9644 17.4976 26.321 20.0156C28.6686 22.5241 30.3333 25.8763 30.3333 29.2917C30.3333 31.4714 29.7243 33.2814 28.7211 34.5355C27.7239 35.7819 26.3234 36.5 24.6667 36.5Z" fill="#F1CDB3" stroke="#4E3E34" style="fill:#F1CDB3;fill:color(display-p3 0.9451 0.8039 0.7020);fill-opacity:1;stroke:#4E3E34;stroke:color(display-p3 0.3059 0.2431 0.2039);stroke-opacity:1;"/>
</g>
<defs>
<clipPath id="clip0_253619_777">
<rect width="37" height="37" fill="white" style="fill:white;fill-opacity:1;"/>
</clipPath>
</defs>
</svg>
